<svg xmlns="http://www.w3.org/2000/svg" viewBox="0 0 32 32" fill="#FF7517" stroke="none"><title>13-Picture-Add</title><g id="_13-Picture-Add" data-name="13-Picture-Add"><path d="M30,19.59l-4.29-4.29a1,1,0,0,0-1.41,0L19,20.59l-6.29-6.29a1,1,0,0,0-1.41,0L2,23.59V3A1,1,0,0,1,3,2H21V0H3A3,3,0,0,0,0,3V29a3,3,0,0,0,3,3H29a3,3,0,0,0,3-3V12H30Z"/><path d="M10,8a4,4,0,1,0,4-4A4,4,0,0,0,10,8Zm6,0a2,2,0,1,1-2-2A2,2,0,0,1,16,8Z"/><polygon points="28 4 28 0 26 0 26 4 22 4 22 6 26 6 26 10 28 10 28 6 32 6 32 4 28 4"/></g></svg>