<svg version="1.1" xmlns="http://www.w3.org/2000/svg" xmlns:xlink="http://www.w3.org/1999/xlink" x="0px" y="0px" viewBox="0 0 32 32" style="enable-background:new 0 0 32 32;" xml:space="preserve">
<style type="text/css">
	.st0{display:none;}
	.st1{display:inline;}
	.st2{fill:#6621BA;}
	.st3{fill:#7B7B7B;}
</style>
<g id="Layer_1" class="st0">
</g>
<g id="Layer_2">
</g>
<g id="Layer_3">
</g>
<g id="Layer_4">
</g>
<g id="Layer_5">
</g>
<g id="Layer_6">
</g>
<g id="Layer_7">
</g>
<g id="Layer_8">
</g>
<g id="Layer_9">
</g>
<g id="Layer_10">
</g>
<g id="Layer_11">
</g>
<g id="Layer_12">
</g>
<g id="Layer_13">
</g>
<g id="Layer_14">
</g>
<g id="Layer_15">
</g>
<g id="Layer_16">
</g>
<g id="Layer_17">
</g>
<g id="Layer_18">
</g>
<g id="Layer_19">
<path class="st2" d="M29.689,13.97L10.541,3.619c-0.872-0.47-1.91-0.346-2.647,0.318C7.158,4.603,6.929,5.623,7.31,6.539
		l3.858,9.266c0.052,0.126,0.052,0.265,0,0.391l-3.861,9.273c-0.38,0.914-0.151,1.935,0.583,2.599
		c0.439,0.396,0.985,0.601,1.54,0.601c0.375,0,0.752-0.094,1.104-0.283L29.689,18.03C30.437,17.626,30.9,16.849,30.9,16
		S30.437,14.374,29.689,13.97z M28.834,16.446L9.678,26.801c-0.285,0.155-0.501,0.004-0.581-0.069
		c-0.08-0.072-0.253-0.272-0.128-0.571l3.855-9.26h5.539c0.497,0,0.9-0.403,0.9-0.9s-0.403-0.9-0.9-0.9h-5.539L8.972,5.848
		C8.847,5.547,9.02,5.346,9.101,5.273c0.055-0.05,0.175-0.138,0.337-0.138c0.074,0,0.158,0.019,0.248,0.067l19.149,10.351
		c0.24,0.13,0.266,0.355,0.266,0.446S29.074,16.316,28.834,16.446z" id="id_101" style="fill: #FF7517"></path>
<path class="st3" d="M2,11.145h3.405c0.497,0,0.9-0.403,0.9-0.9s-0.403-0.9-0.9-0.9H2c-0.497,0-0.9,0.403-0.9,0.9
		S1.503,11.145,2,11.145z" id="id_102"></path>
<path class="st3" d="M3.306,16c0,0.497,0.403,0.9,0.9,0.9H7.61c0.497,0,0.9-0.403,0.9-0.9s-0.403-0.9-0.9-0.9H4.206
		C3.708,15.1,3.306,15.503,3.306,16z" id="id_103"></path>
<path class="st3" d="M5.405,20.855H2c-0.497,0-0.9,0.403-0.9,0.9s0.403,0.9,0.9,0.9h3.405c0.497,0,0.9-0.403,0.9-0.9
		S5.902,20.855,5.405,20.855z" id="id_104"></path>
</g>
<g id="Layer_20">
</g>
<g id="Layer_21">
</g>
<g id="Layer_22">
</g>
<g id="Layer_23">
</g>
<g id="Layer_24">
</g>
<g id="Layer_25">
</g>
<g id="Layer_26">
</g>
</svg>