<svg xmlns="http://www.w3.org/2000/svg" shape-rendering="geometricPrecision" text-rendering="geometricPrecision" image-rendering="optimizeQuality" fill-rule="evenodd" clip-rule="evenodd" viewBox="0 0 505 512.47"><path fill="white" fill-rule="nonzero" d="M128.88 48.4 46 135.96h82.88V48.4zM80.01 459.85v25.07h397.43V80.18h-24.89v352.27c0 7.55-3.08 14.41-8.04 19.37-5 4.94-11.86 8.03-19.35 8.03H80.01zM452.55 52.62h25.06c6.97 0 13.39 2.67 18.26 7.06l1.09.98c4.96 4.95 8.04 11.8 8.04 19.36v405.05c0 7.55-3.08 14.41-8.04 19.37-4.99 4.94-11.86 8.03-19.35 8.03H79.84c-7.52 0-14.38-3.1-19.34-8.05-4.95-4.96-8.05-11.82-8.05-19.35v-25.22H27.39c-7.52 0-14.38-3.1-19.34-8.05C3.1 446.84 0 439.97 0 432.45V152.57c0-1.14.14-2.25.4-3.31.11-3.22 1.35-6.41 3.74-8.93L130.23 7.12A13.74 13.74 0 0 1 142.29 0h282.87c6.97 0 13.39 2.67 18.26 7.06l1.09.98c4.96 4.95 8.04 11.8 8.04 19.36v25.22zM319.01 136.1c7.65 0 13.85 6.14 13.85 13.71 0 7.57-6.2 13.71-13.85 13.71h-91.49c-7.65 0-13.85-6.14-13.85-13.71 0-7.57 6.2-13.71 13.85-13.71h91.49zm0 92.49c7.65 0 13.85 6.14 13.85 13.71 0 7.57-6.2 13.72-13.85 13.72H133.35c-7.64 0-13.85-6.15-13.85-13.72s6.21-13.71 13.85-13.71h185.66zm0 92.49c7.65 0 13.85 6.14 13.85 13.71 0 7.57-6.2 13.71-13.85 13.71H133.35c-7.64 0-13.85-6.14-13.85-13.71 0-7.57 6.21-13.71 13.85-13.71h185.66zM27.56 163.52V432.3h397.43V27.56H156.44v122.18c0 7.61-6.17 13.78-13.78 13.78H27.56z"/></svg>